<?xml version="1.0" encoding="UTF-8" standalone="no"?>
<!DOCTYPE svg PUBLIC "-//W3C//DTD SVG 1.1//EN"
 "http://www.w3.org/Graphics/SVG/1.1/DTD/svg11.dtd">
<!-- Generated by graphviz version 2.30.1 (20130218.1039)
 -->
<!-- Title: Reihenfolge Pages: 1 -->
<svg width="368pt" height="113pt"
 viewBox="0.00 0.00 368.00 113.00" xmlns="http://www.w3.org/2000/svg" xmlns:xlink="http://www.w3.org/1999/xlink">
<g id="graph0" class="graph" transform="scale(1 1) rotate(0) translate(4 109)">
<title>Reihenfolge</title>
<!-- Darth -->
<g id="node1" class="node"><title>Darth</title>
<ellipse fill="white" stroke="black" cx="230" cy="-83" rx="35.7294" ry="21.7689"/>
<text text-anchor="middle" x="230" y="-80.4744" font-family="Avenir" font-size="14.00">Darth</text>
</g>
<!-- Han -->
<g id="node4" class="node"><title>Han</title>
<ellipse fill="white" stroke="black" cx="331" cy="-83" rx="29.2066" ry="21.7689"/>
<text text-anchor="middle" x="331" y="-80.4744" font-family="Avenir" font-size="14.00">Han</text>
</g>
<!-- Darth&#45;&gt;Han -->
<g id="edge4" class="edge"><title>Darth&#45;&gt;Han</title>
<path fill="none" stroke="black" d="M265.904,-83C274.215,-83 283.129,-83 291.588,-83"/>
<polygon fill="black" stroke="black" points="291.609,-86.5001 301.609,-83 291.609,-79.5001 291.609,-86.5001"/>
</g>
<!-- Leia -->
<g id="node2" class="node"><title>Leia</title>
<ellipse fill="white" stroke="black" cx="230" cy="-21" rx="29.0642" ry="21.7689"/>
<text text-anchor="middle" x="230" y="-18.4744" font-family="Avenir" font-size="14.00">Leia</text>
</g>
<!-- Obi -->
<g id="node3" class="node"><title>Obi</title>
<ellipse fill="white" stroke="black" cx="130" cy="-52" rx="27.9887" ry="21.7689"/>
<text text-anchor="middle" x="130" y="-49.4744" font-family="Avenir" font-size="14.00">Obi</text>
</g>
<!-- Obi&#45;&gt;Darth -->
<g id="edge2" class="edge"><title>Obi&#45;&gt;Darth</title>
<path fill="none" stroke="black" d="M156.237,-59.9833C165.964,-63.0599 177.338,-66.6579 188.165,-70.0828"/>
<polygon fill="black" stroke="black" points="187.301,-73.4805 197.891,-73.1595 189.412,-66.8064 187.301,-73.4805"/>
</g>
<!-- Obi&#45;&gt;Leia -->
<g id="edge3" class="edge"><title>Obi&#45;&gt;Leia</title>
<path fill="none" stroke="black" d="M156.237,-44.0167C167.403,-40.4849 180.74,-36.266 192.928,-32.4106"/>
<polygon fill="black" stroke="black" points="194.344,-35.6338 202.822,-29.2807 192.232,-28.9597 194.344,-35.6338"/>
</g>
<!-- Yoda -->
<g id="node5" class="node"><title>Yoda</title>
<ellipse fill="white" stroke="black" cx="33" cy="-52" rx="33.2848" ry="21.7689"/>
<text text-anchor="middle" x="33" y="-49.4744" font-family="Avenir" font-size="14.00">Yoda</text>
</g>
<!-- Yoda&#45;&gt;Obi -->
<g id="edge1" class="edge"><title>Yoda&#45;&gt;Obi</title>
<path fill="none" stroke="black" d="M66.1627,-52C74.4287,-52 83.3889,-52 91.8834,-52"/>
<polygon fill="black" stroke="black" points="91.9357,-55.5001 101.936,-52 91.9357,-48.5001 91.9357,-55.5001"/>
</g>
</g>
</svg>
