<?xml version="1.0" encoding="UTF-8" standalone="no"?>
<!DOCTYPE svg PUBLIC "-//W3C//DTD SVG 1.1//EN"
 "http://www.w3.org/Graphics/SVG/1.1/DTD/svg11.dtd">
<!-- Generated by graphviz version 2.30.1 (20130218.1039)
 -->
<!-- Title: direkter Vergleich Pages: 1 -->
<svg width="276pt" height="269pt"
 viewBox="0.00 0.00 276.04 269.32" xmlns="http://www.w3.org/2000/svg" xmlns:xlink="http://www.w3.org/1999/xlink">
<g id="graph0" class="graph" transform="scale(1 1) rotate(0) translate(4 265.324)">
<title>direkter Vergleich</title>
<!-- Darth -->
<g id="node1" class="node"><title>Darth</title>
<ellipse fill="white" stroke="black" cx="161.018" cy="-21.8841" rx="35.7294" ry="21.7689"/>
<text text-anchor="middle" x="161.018" y="-19.3586" font-family="Avenir" font-size="14.00">Darth</text>
</g>
<!-- Han -->
<g id="node4" class="node"><title>Han</title>
<ellipse fill="white" stroke="black" cx="33.1421" cy="-63.4336" rx="29.2066" ry="21.7689"/>
<text text-anchor="middle" x="33.1421" y="-60.908" font-family="Avenir" font-size="14.00">Han</text>
</g>
<!-- Darth&#45;&gt;Han -->
<g id="edge4" class="edge"><title>Darth&#45;&gt;Han</title>
<path fill="none" stroke="black" d="M129.079,-32.2616C111.02,-38.1295 88.3714,-45.4885 69.6157,-51.5826"/>
<polygon fill="black" stroke="black" points="68.3586,-48.3109 59.9296,-54.7298 70.5218,-54.9683 68.3586,-48.3109"/>
<text text-anchor="middle" x="95.4556" y="-50.871" font-family="Avenir" font-size="14.00">6</text>
</g>
<!-- Leia -->
<g id="node2" class="node"><title>Leia</title>
<ellipse fill="white" stroke="black" cx="161.018" cy="-239.44" rx="29.0642" ry="21.7689"/>
<text text-anchor="middle" x="161.018" y="-236.914" font-family="Avenir" font-size="14.00">Leia</text>
</g>
<!-- Obi -->
<g id="node3" class="node"><title>Obi</title>
<ellipse fill="white" stroke="black" stroke-width="4" cx="240.05" cy="-130.662" rx="27.9887" ry="21.7689"/>
<text text-anchor="middle" x="240.05" y="-128.136" font-family="Avenir" font-size="14.00">Obi</text>
</g>
<!-- Obi&#45;&gt;Darth -->
<g id="edge1" class="edge"><title>Obi&#45;&gt;Darth</title>
<path fill="none" stroke="black" stroke-width="3" d="M226.103,-111.465C213.75,-94.4636 195.556,-69.4219 181.543,-50.1342"/>
<polygon fill="black" stroke="black" points="184.338,-48.0271 175.629,-41.9942 178.675,-52.1416 184.338,-48.0271"/>
<text text-anchor="middle" x="199.931" y="-89.7485" font-family="Avenir" font-size="14.00">8</text>
</g>
<!-- Obi&#45;&gt;Leia -->
<g id="edge2" class="edge"><title>Obi&#45;&gt;Leia</title>
<path fill="none" stroke="black" stroke-width="3" d="M226.103,-149.859C213.596,-167.073 195.101,-192.529 181.02,-211.91"/>
<polygon fill="black" stroke="black" points="178.138,-209.922 175.092,-220.069 183.801,-214.036 178.138,-209.922"/>
<text text-anchor="middle" x="199.669" y="-189.834" font-family="Avenir" font-size="14.00">8</text>
</g>
<!-- Obi&#45;&gt;Han -->
<g id="edge3" class="edge"><title>Obi&#45;&gt;Han</title>
<path fill="none" stroke="black" stroke-width="3" d="M213.845,-122.147C177.378,-110.299 111.16,-88.7832 69.808,-75.3471"/>
<polygon fill="black" stroke="black" points="70.7092,-71.9598 60.117,-72.1983 68.546,-78.6172 70.7092,-71.9598"/>
<text text-anchor="middle" x="137.934" y="-107.696" font-family="Avenir" font-size="14.00">9</text>
</g>
<!-- Yoda -->
<g id="node5" class="node"><title>Yoda</title>
<ellipse fill="none" stroke="lightgray" cx="33.1421" cy="-197.89" rx="33.2848" ry="21.7689"/>
<text text-anchor="middle" x="33.1421" y="-195.365" font-family="Avenir" font-size="14.00" fill="lightgray">Yoda</text>
</g>
<!-- Yoda&#45;&gt;Darth -->
<g id="edge5" class="edge"><title>Yoda&#45;&gt;Darth</title>
<path fill="none" stroke="lightgray" d="M47.5625,-178.042C70.2993,-146.748 114.562,-85.8257 140.571,-50.0269"/>
<polygon fill="lightgray" stroke="lightgray" points="143.408,-52.0771 146.454,-41.9297 137.745,-47.9626 143.408,-52.0771"/>
<text text-anchor="middle" x="90.1749" y="-122.984" font-family="Avenir" font-size="14.00" fill="lightgray">8</text>
</g>
<!-- Yoda&#45;&gt;Leia -->
<g id="edge6" class="edge"><title>Yoda&#45;&gt;Leia</title>
<path fill="none" stroke="lightgray" d="M63.1234,-207.632C81.3537,-213.555 104.772,-221.165 124.133,-227.455"/>
<polygon fill="lightgray" stroke="lightgray" points="123.247,-230.847 133.839,-230.609 125.41,-224.19 123.247,-230.847"/>
<text text-anchor="middle" x="89.7364" y="-226.492" font-family="Avenir" font-size="14.00" fill="lightgray">9</text>
</g>
<!-- Yoda&#45;&gt;Obi -->
<g id="edge7" class="edge"><title>Yoda&#45;&gt;Obi</title>
<path fill="none" stroke="lightgray" d="M63.2283,-188.115C100.735,-175.928 164.749,-155.129 204.598,-142.181"/>
<polygon fill="lightgray" stroke="lightgray" points="205.749,-145.487 214.178,-139.068 203.586,-138.83 205.749,-145.487"/>
<text text-anchor="middle" x="130.021" y="-174.097" font-family="Avenir" font-size="14.00" fill="lightgray">9</text>
</g>
<!-- Yoda&#45;&gt;Han -->
<g id="edge8" class="edge"><title>Yoda&#45;&gt;Han</title>
<path fill="none" stroke="lightgray" d="M33.1421,-175.988C33.1421,-154.111 33.1421,-120.246 33.1421,-95.3739"/>
<polygon fill="lightgray" stroke="lightgray" points="36.6422,-95.3263 33.1421,-85.3263 29.6422,-95.3263 36.6422,-95.3263"/>
<text text-anchor="middle" x="29.2501" y="-144.63" font-family="Avenir" font-size="14.00" fill="lightgray">9</text>
</g>
</g>
</svg>
